<svg xmlns="http://www.w3.org/2000/svg" viewBox="0 0 256 256" role="img" aria-labelledby="title desc">
  <title id="title">Hungry bear logo</title>
  <desc id="desc">A realistic bear head looking forward with a slightly open mouth.</desc>
  <defs>
    <linearGradient id="fur" x1="0%" y1="0%" x2="100%" y2="100%">
      <stop offset="0%" stop-color="#5d4632"/>
      <stop offset="55%" stop-color="#3b2a20"/>
      <stop offset="100%" stop-color="#241915"/>
    </linearGradient>
    <linearGradient id="muzzle" x1="0%" y1="0%" x2="100%" y2="100%">
      <stop offset="0%" stop-color="#c5ab88"/>
      <stop offset="100%" stop-color="#8e7358"/>
    </linearGradient>
    <radialGradient id="eye" cx="50%" cy="45%" r="60%">
      <stop offset="0%" stop-color="#1a120f"/>
      <stop offset="100%" stop-color="#060404"/>
    </radialGradient>
  </defs>
  <ellipse cx="84" cy="72" rx="33" ry="37" fill="url(#fur)"/>
  <ellipse cx="172" cy="72" rx="33" ry="37" fill="url(#fur)"/>
  <path d="M128 36c42 0 76 29 76 69 0 50-31 85-76 85s-76-35-76-85c0-40 34-69 76-69z" fill="url(#fur)"/>
  <path d="M88 126c10-28 34-44 40-44s30 16 40 44c6 17 5 33-2 46-12 23-41 24-38 24s-26-1-38-24c-7-13-8-29-2-46z" fill="url(#muzzle)"/>
  <ellipse cx="103" cy="110" rx="11" ry="13" fill="url(#eye)"/>
  <ellipse cx="153" cy="110" rx="11" ry="13" fill="url(#eye)"/>
  <ellipse cx="103" cy="107" rx="3.5" ry="4.5" fill="#f7f2e8" opacity=".85"/>
  <ellipse cx="153" cy="107" rx="3.5" ry="4.5" fill="#f7f2e8" opacity=".85"/>
  <path d="M121 128c4-5 10-8 7-8s11 3 15 8c2 3 3 7 3 11 0 8-6 14-13 14h-2c-7 0-13-6-13-14 0-4 1-8 3-11z" fill="#1a120f"/>
  <path d="M126 141c6 0 9 6 9 12 0 7-4 13-9 13s-9-6-9-13c0-6 3-12 9-12z" fill="#8b3b38" opacity=".9"/>
  <path d="M128 154c19 0 33 15 33 31 0 8-4 15-10 20-7 5-16 7-23 7s-16-2-23-7c-6-5-10-12-10-20 0-16 14-31 33-31z" fill="#2c1f1b"/>
  <path d="M112 160c4 7 8 11 16 11s12-4 16-11c2 2 3 5 3 9 0 10-8 19-19 19s-19-9-19-19c0-4 1-7 3-9z" fill="#4b3028" opacity=".9"/>
  <path d="M92 85c7-14 20-22 36-22s29 8 36 22" fill="none" stroke="rgba(255,255,255,.1)" stroke-width="10" stroke-linecap="round"/>
</svg>